<?xml version="1.0" standalone="no"?>
<svg xmlns:xlink="http://www.w3.org/1999/xlink" xmlns="http://www.w3.org/2000/svg"
    viewBox="0 0 1000 2333.4971966920343" preserveAspectRatio="xMaxYMax slice">
    <g transform="scale(6.222659191178758)">
        <rect x="0" y="0" width="160.71428571428572" height="375" fill="#ffffff" />
        <path d="M 0 53.57 A 53.57 53.57 0 0 1  53.57 0 L 53.57 53.57" fill="#e0fff1" />
        <g transform="translate(53.57,0) scale(2.6785) rotate(0)">
            <rect width="20" height="2" fill="#9fb0f5" />
            <rect y="4" width="20" height="2" fill="#9fb0f5" />
            <rect y="8" width="20" height="2" fill="#9fb0f5" />
            <rect y="12" width="20" height="2" fill="#9fb0f5" />
            <rect y="16" width="20" height="2" fill="#9fb0f5" />
        </g>
        <rect x="107.14285714285714" y="0" width="53.57142857142857" height="53.57142857142857" fill="#ffffff" />
        <g transform="translate(107.14,0) scale(1.3395) rotate(0)">
            <rect width="2" height="20" fill="#b0bef6" />
            <rect x="4" width="2" height="20" fill="#b0bef6" />
            <rect x="8" width="2" height="20" fill="#b0bef6" />
            <rect x="12" width="2" height="20" fill="#b0bef6" />
            <rect x="16" width="2" height="20" fill="#b0bef6" />
        </g>
        <path d="M 133.93 26.79 A 26.79 26.79 0 0 1  160.72 0 L 133.93 26.79 A 26.79 26.79 0 0 0 160.72 0"
            fill="#fefeff" />
        <g transform="translate(107.14,26.79) scale(1.3395) rotate(0)">
            <rect width="20" height="2" fill="#e6ebfc" />
            <rect y="4" width="20" height="2" fill="#e6ebfc" />
            <rect y="8" width="20" height="2" fill="#e6ebfc" />
            <rect y="12" width="20" height="2" fill="#e6ebfc" />
            <rect y="16" width="20" height="2" fill="#e6ebfc" />
        </g>
        <path d="M 133.93 26.79 A 26.79 26.79 0 0 0 160.72 53.58 L 160.72 26.79" fill="#e1fff1" />
        <rect x="0" y="53.57142857142857" width="53.57142857142857" height="53.57142857142857" fill="#ffffff" />
        <g transform="translate(0,53.57) scale(1.3395) rotate(0)">
            <rect width="20" height="2" fill="#f5fffa" />
            <rect y="4" width="20" height="2" fill="#f5fffa" />
            <rect y="8" width="20" height="2" fill="#f5fffa" />
            <rect y="12" width="20" height="2" fill="#f5fffa" />
            <rect y="16" width="20" height="2" fill="#f5fffa" />
        </g>
        <g transform="translate(26.79,53.57) scale(1.3395) rotate(0)">
            <rect width="20" height="2" fill="#ced7fa" />
            <rect y="4" width="20" height="2" fill="#ced7fa" />
            <rect y="8" width="20" height="2" fill="#ced7fa" />
            <rect y="12" width="20" height="2" fill="#ced7fa" />
            <rect y="16" width="20" height="2" fill="#ced7fa" />
        </g>
        <g transform="translate(0,80.36) scale(1.3395) rotate(0)">
            <rect width="2" height="20" fill="#e3fff2" />
            <rect x="4" width="2" height="20" fill="#e3fff2" />
            <rect x="8" width="2" height="20" fill="#e3fff2" />
            <rect x="12" width="2" height="20" fill="#e3fff2" />
            <rect x="16" width="2" height="20" fill="#e3fff2" />
        </g>
        <g transform="translate(26.79,80.36) scale(1.3395) rotate(0)">
            <rect width="20" height="2" fill="#e6fff4" />
            <rect y="4" width="20" height="2" fill="#e6fff4" />
            <rect y="8" width="20" height="2" fill="#e6fff4" />
            <rect y="12" width="20" height="2" fill="#e6fff4" />
            <rect y="16" width="20" height="2" fill="#e6fff4" />
        </g>
        <path d="M 53.57 53.57 A 53.57 53.57 0 0 0 107.14 107.14 L 107.14 53.57" fill="#feffff" />
        <g transform="translate(107.14,53.57) scale(2.6785) rotate(0)">
            <rect width="20" height="2" fill="#effff8" />
            <rect y="4" width="20" height="2" fill="#effff8" />
            <rect y="8" width="20" height="2" fill="#effff8" />
            <rect y="12" width="20" height="2" fill="#effff8" />
            <rect y="16" width="20" height="2" fill="#effff8" />
        </g>
        <path d="M 0 160.71 A 53.57 53.57 0 0 1  53.57 107.14 L 53.57 160.71" fill="#a0b1f5" />
        <path d="M 53.57 107.14 A 53.57 53.57 0 0 0 107.14 160.71 L 107.14 107.14" fill="#96a9f4" />
        <g transform="translate(107.14,107.14) scale(2.6785) rotate(0)">
            <rect width="2" height="20" fill="#9badf4" />
            <rect x="4" width="2" height="20" fill="#9badf4" />
            <rect x="8" width="2" height="20" fill="#9badf4" />
            <rect x="12" width="2" height="20" fill="#9badf4" />
            <rect x="16" width="2" height="20" fill="#9badf4" />
        </g>
        <rect x="0" y="160.71428571428572" width="53.57142857142857" height="53.57142857142857" fill="#ffffff" />
        <path d="M 0 187.5 A 26.79 26.79 0 0 1  26.79 160.71 L 0 187.5 A 26.79 26.79 0 0 0 26.79 160.71"
            fill="#cfd8fa" />
        <path d="M 26.79 160.71 A 26.79 26.79 0 0 1 53.58 187.5 L 26.79 187.5" fill="#e0fff1" />
        <path d="M 0 214.29 A 26.79 26.79 0 0 1  26.79 187.5 L 26.79 214.29" fill="#f2fff9" />
        <g transform="translate(26.79,187.5) scale(1.3395) rotate(0)">
            <rect width="2" height="20" fill="#b6c3f7" />
            <rect x="4" width="2" height="20" fill="#b6c3f7" />
            <rect x="8" width="2" height="20" fill="#b6c3f7" />
            <rect x="12" width="2" height="20" fill="#b6c3f7" />
            <rect x="16" width="2" height="20" fill="#b6c3f7" />
        </g>
        <rect x="53.57142857142857" y="160.71428571428572" width="53.57142857142857" height="53.57142857142857"
            fill="#ffffff" />
        <g transform="translate(53.57,160.71) scale(1.3395) rotate(0)">
            <rect width="2" height="20" fill="#e8fff4" />
            <rect x="4" width="2" height="20" fill="#e8fff4" />
            <rect x="8" width="2" height="20" fill="#e8fff4" />
            <rect x="12" width="2" height="20" fill="#e8fff4" />
            <rect x="16" width="2" height="20" fill="#e8fff4" />
        </g>
        <g transform="translate(80.36,160.71) scale(1.3395) rotate(0)">
            <rect width="20" height="2" fill="#e0fff1" />
            <rect y="4" width="20" height="2" fill="#e0fff1" />
            <rect y="8" width="20" height="2" fill="#e0fff1" />
            <rect y="12" width="20" height="2" fill="#e0fff1" />
            <rect y="16" width="20" height="2" fill="#e0fff1" />
        </g>
        <path d="M 53.57 187.5 A 26.79 26.79 0 0 1 80.36 214.29 L 53.57 214.29" fill="#d8ffed" />
        <g transform="translate(80.36,187.5) scale(1.3395) rotate(0)">
            <rect width="20" height="2" fill="#b6c3f7" />
            <rect y="4" width="20" height="2" fill="#b6c3f7" />
            <rect y="8" width="20" height="2" fill="#b6c3f7" />
            <rect y="12" width="20" height="2" fill="#b6c3f7" />
            <rect y="16" width="20" height="2" fill="#b6c3f7" />
        </g>
        <path d="M 107.14 214.28 A 53.57 53.57 0 0 1  160.71 160.71 L 160.71 214.28" fill="#dcffef" />
        <g transform="translate(0,214.29) scale(2.6785) rotate(0)">
            <rect width="2" height="20" fill="#e2fff2" />
            <rect x="4" width="2" height="20" fill="#e2fff2" />
            <rect x="8" width="2" height="20" fill="#e2fff2" />
            <rect x="12" width="2" height="20" fill="#e2fff2" />
            <rect x="16" width="2" height="20" fill="#e2fff2" />
        </g>
        <g transform="translate(53.57,214.29) scale(2.6785) rotate(0)">
            <rect width="2" height="20" fill="#c8d2f9" />
            <rect x="4" width="2" height="20" fill="#c8d2f9" />
            <rect x="8" width="2" height="20" fill="#c8d2f9" />
            <rect x="12" width="2" height="20" fill="#c8d2f9" />
            <rect x="16" width="2" height="20" fill="#c8d2f9" />
        </g>
        <g transform="translate(107.14,214.29) scale(2.6785) rotate(0)">
            <rect width="20" height="2" fill="#d8dffb" />
            <rect y="4" width="20" height="2" fill="#d8dffb" />
            <rect y="8" width="20" height="2" fill="#d8dffb" />
            <rect y="12" width="20" height="2" fill="#d8dffb" />
            <rect y="16" width="20" height="2" fill="#d8dffb" />
        </g>
        <g transform="translate(0,267.86) scale(2.6785) rotate(0)">
            <rect width="20" height="2" fill="#f5fffa" />
            <rect y="4" width="20" height="2" fill="#f5fffa" />
            <rect y="8" width="20" height="2" fill="#f5fffa" />
            <rect y="12" width="20" height="2" fill="#f5fffa" />
            <rect y="16" width="20" height="2" fill="#f5fffa" />
        </g>
        <g transform="translate(53.57,267.86) scale(2.6785) rotate(0)">
            <rect width="2" height="20" fill="#d2dafa" />
            <rect x="4" width="2" height="20" fill="#d2dafa" />
            <rect x="8" width="2" height="20" fill="#d2dafa" />
            <rect x="12" width="2" height="20" fill="#d2dafa" />
            <rect x="16" width="2" height="20" fill="#d2dafa" />
        </g>
        <rect x="107.14285714285714" y="267.85714285714283" width="53.57142857142857" height="53.57142857142857"
            fill="#ffffff" />
        <path d="M 107.14 294.65000000000003 A 26.79 26.79 0 0 0 133.93 267.86 L 107.14 267.86" fill="#99abf4" />
        <g transform="translate(133.93,267.86) scale(1.3395) rotate(0)">
            <rect width="2" height="20" fill="#a3b4f5" />
            <rect x="4" width="2" height="20" fill="#a3b4f5" />
            <rect x="8" width="2" height="20" fill="#a3b4f5" />
            <rect x="12" width="2" height="20" fill="#a3b4f5" />
            <rect x="16" width="2" height="20" fill="#a3b4f5" />
        </g>
        <g transform="translate(107.14,294.64) scale(1.3395) rotate(0)">
            <rect width="20" height="2" fill="#ecfff6" />
            <rect y="4" width="20" height="2" fill="#ecfff6" />
            <rect y="8" width="20" height="2" fill="#ecfff6" />
            <rect y="12" width="20" height="2" fill="#ecfff6" />
            <rect y="16" width="20" height="2" fill="#ecfff6" />
        </g>
        <g transform="translate(133.93,294.64) scale(1.3395) rotate(0)">
            <rect width="2" height="20" fill="#9badf4" />
            <rect x="4" width="2" height="20" fill="#9badf4" />
            <rect x="8" width="2" height="20" fill="#9badf4" />
            <rect x="12" width="2" height="20" fill="#9badf4" />
            <rect x="16" width="2" height="20" fill="#9badf4" />
        </g>
        <path d="M 0 321.43 A 53.57 53.57 0 0 1  53.57 375 L 0 321.43 A 53.57 53.57 0 0 0 53.57 375" fill="#b2c0f7" />
        <g transform="translate(53.57,321.43) scale(2.6785) rotate(0)">
            <rect width="2" height="20" fill="#a2b3f5" />
            <rect x="4" width="2" height="20" fill="#a2b3f5" />
            <rect x="8" width="2" height="20" fill="#a2b3f5" />
            <rect x="12" width="2" height="20" fill="#a2b3f5" />
            <rect x="16" width="2" height="20" fill="#a2b3f5" />
        </g>
        <rect x="107.14285714285714" y="321.42857142857144" width="53.57142857142857" height="53.57142857142857"
            fill="#ffffff" />
        <g transform="translate(107.14,321.43) scale(1.3395) rotate(0)">
            <rect width="20" height="2" fill="#f4fffa" />
            <rect y="4" width="20" height="2" fill="#f4fffa" />
            <rect y="8" width="20" height="2" fill="#f4fffa" />
            <rect y="12" width="20" height="2" fill="#f4fffa" />
            <rect y="16" width="20" height="2" fill="#f4fffa" />
        </g>
        <g transform="translate(133.93,321.43) scale(1.3395) rotate(0)">
            <rect width="20" height="2" fill="#e9fff5" />
            <rect y="4" width="20" height="2" fill="#e9fff5" />
            <rect y="8" width="20" height="2" fill="#e9fff5" />
            <rect y="12" width="20" height="2" fill="#e9fff5" />
            <rect y="16" width="20" height="2" fill="#e9fff5" />
        </g>
        <g transform="translate(107.14,348.21) scale(1.3395) rotate(0)">
            <rect width="2" height="20" fill="#dae0fb" />
            <rect x="4" width="2" height="20" fill="#dae0fb" />
            <rect x="8" width="2" height="20" fill="#dae0fb" />
            <rect x="12" width="2" height="20" fill="#dae0fb" />
            <rect x="16" width="2" height="20" fill="#dae0fb" />
        </g>
        <g transform="translate(133.93,348.21) scale(1.3395) rotate(0)">
            <rect width="20" height="2" fill="#ffffff" />
            <rect y="4" width="20" height="2" fill="#ffffff" />
            <rect y="8" width="20" height="2" fill="#ffffff" />
            <rect y="12" width="20" height="2" fill="#ffffff" />
            <rect y="16" width="20" height="2" fill="#ffffff" />
        </g>
    </g>
</svg>